{"title":"Human Planet - S01E02 - Deserts-Life In The Furnace","uid":15538295,"size":1244003569,"categoryP":"video","categoryS":"tv_shows","magnet":"?xt=urn:btih:c56e590edf5910a3d0dcb7e770052fba4b71d373&amp;dn=Human+Planet+-+S01E02+-+Deserts-Life+In+The+Furnace&amp;tr=udp%3A%2F%2Ftracker.leechers-paradise.org%3A6969&amp;tr=udp%3A%2F%2Fzer0day.ch%3A1337&amp;tr=udp%3A%2F%2Fopen.demonii.com%3A1337&amp;tr=udp%3A%2F%2Ftracker.coppersurfer.tk%3A6969&amp;tr=udp%3A%2F%2Fexodus.desync.com%3A6969","seeders":6,"leechers":2,"uploader":"Bullrout","files":1,"time":1470903230,"description":"Human Planet - S01E02 - Deserts-Life In The Furnace\r\n\r\nWe can survive for weeks without food, but only days without water: it is the essential element of life. Yet many millions of us live in parched deserts around the world. In the second episode of Human Planet, we discover how the eternal quest for water brings huge challenges - and ingenious solutions - in the driest places on Earth.\r\nBattling through a sand storm in Mali, Mamadou must get his cows to a remote lake but desert elephants have arrived first. Can he find a safe way through the elephant blockade? Alone for weeks on end, Tubu women and children navigate the endless dunes of the Sahara. How does young Shede know where to find the last oasis, three days walk across the sea of sand? At the height of the drought we witness a spectacular frenzy: two thousand men rushing into Antogo Lake to catch the fish trapped by the evaporating water. When the rain finally arrives in the desert it's a time for flowering and jubilation - and love. The Wodaabe men of Niger put on make-up for an intoxicating courtship dance and beauty contest.\r\n\r\nComplete name : Human Planet - S01E02 - Deserts-Life In The Furnace.mkv\r\nFormat : Matroska\r\nFormat version : Version 4 / Version 2\r\nFile size : 1.16 GiB\r\nDuration : 49mn 39s\r\nOverall bit rate mode : Variable\r\nOverall bit rate : 3 340 Kbps\r\nEncoded date : UTC 2016-08-10 19:05:27\r\nWriting application : mkvmerge v9.3.1 ('Mask Machine') 64bit\r\nWriting library : libebml v1.3.4 + libmatroska v1.4.5\r\n\r\nVideo\r\nID : 2\r\nFormat : AVC\r\nFormat/Info : Advanced Video Codec\r\nFormat profile :   \r\nFormat settings, CABAC : Yes\r\nFormat settings, ReFrames : 3 frames\r\nCodec ID : V_MPEG4/ISO/AVC\r\nDuration : 49mn 39s\r\nBit rate mode : Variable\r\nBit rate : 2 954 Kbps\r\nMaximum bit rate : 3 000 Kbps\r\nWidth : 1 280 pixels\r\nHeight : 720 pixels\r\nDisplay aspect ratio : 16:9\r\nFrame rate mode : Constant\r\nFrame rate : 25.000 fps\r\nStandard : PAL\r\nColor space : YUV\r\nChroma subsampling : 4:2:0\r\nBit depth : 8 bits\r\nScan type : Progressive\r\nBits/(Pixel*Frame) : 0.128\r\nStream size : 1.02 GiB (88%)\r\nWriting library : x264 core 112\r\nDefault : Yes\r\nForced : No\r\nColor range : Limited\r\nColor primaries : BT.709\r\nTransfer characteristics : BT.709\r\nMatrix coefficients : BT.709\r\n\r\nAudio\r\nID : 1\r\nFormat : AC-3\r\nFormat/Info : Audio Coding 3\r\nMode extension : CM (complete main)\r\nFormat settings, Endianness : Big\r\nCodec ID : A_AC3\r\nDuration : 49mn 39s\r\nBit rate mode : Constant\r\nBit rate : 384 Kbps\r\nChannel(s) : 6 channels\r\nChannel positions : Front: L C R, Side: L R, LFE\r\nSampling rate : 48.0 KHz\r\nFrame rate : 31.250 fps (1536 spf)\r\nCompression mode : Lossy\r\nStream size : 136 MiB (11%)\r\nDefault : Yes\r\nForced : No","torrent":{"xt":"urn:btih:c56e590edf5910a3d0dcb7e770052fba4b71d373","amp;dn":"Human+Planet+-+S01E02+-+Deserts-Life+In+The+Furnace","amp;tr":["udp%3A%2F%2Ftracker.leechers-paradise.org%3A6969","udp%3A%2F%2Fzer0day.ch%3A1337","udp%3A%2F%2Fopen.demonii.com%3A1337","udp%3A%2F%2Ftracker.coppersurfer.tk%3A6969","udp%3A%2F%2Fexodus.desync.com%3A6969"],"infoHash":"c56e590edf5910a3d0dcb7e770052fba4b71d373","infoHashBuffer":{"type":"Buffer","data":[197,110,89,14,223,89,16,163,208,220,183,231,112,5,47,186,75,113,211,115]},"announce":[],"urlList":[]}}